<svg xmlns="http://www.w3.org/2000/svg" version="1.1" xmlns:xlink="http://www.w3.org/1999/xlink" xmlns:svgjs="http://svgjs.com/svgjs" width="750" height="800" preserveAspectRatio="none" viewBox="0 0 750 800"><g mask="url(&quot;#SvgjsMask1454&quot;)" fill="none"><rect width="750" height="800" x="0" y="0" fill="url(#SvgjsLinearGradient1455)"></rect><path d="M0 0L52.93 0L0 353.72z" fill="rgba(255, 255, 255, .1)"></path><path d="M0 353.72L52.93 0L412.68 0L0 438.3z" fill="rgba(255, 255, 255, .075)"></path><path d="M0 438.3L412.68 0L488.69 0L0 512.4200000000001z" fill="rgba(255, 255, 255, .05)"></path><path d="M0 512.4200000000001L488.69 0L627.35 0L0 558.5300000000001z" fill="rgba(255, 255, 255, .025)"></path><path d="M750 800L620.5 800L750 443.31z" fill="rgba(0, 0, 0, .1)"></path><path d="M750 443.31L620.5 800L560.23 800L750 401.62z" fill="rgba(0, 0, 0, .075)"></path><path d="M750 401.62L560.23 800L233.31 800L750 230.98000000000002z" fill="rgba(0, 0, 0, .05)"></path><path d="M750 230.98000000000002L233.30999999999995 800L218.67999999999995 800L750 69.83000000000001z" fill="rgba(0, 0, 0, .025)"></path></g><defs><mask id="SvgjsMask1454"><rect width="750" height="800" fill="#ffffff"></rect></mask><linearGradient x1="-1.67%" y1="1.56%" x2="101.67%" y2="98.44%" gradientUnits="userSpaceOnUse" id="SvgjsLinearGradient1455"><stop stop-color="rgba(255, 255, 255, 1)" offset="0.12"></stop><stop stop-color="rgba(255, 88, 158, 1)" offset="0.19"></stop></linearGradient></defs></svg>