<svg xmlns="http://www.w3.org/2000/svg" xmlns:xlink="http://www.w3.org/1999/xlink" width="500" zoomAndPan="magnify" viewBox="0 0 375 374.999991" height="500" preserveAspectRatio="xMidYMid meet" version="1.0"><path fill="#35c42c" d="M 375 32.699219 C 375 14.640625 360.363281 0 342.300781 0 L 32.691406 0 C 14.636719 0 0 14.640625 0 32.699219 L 0 342.300781 C 0 360.359375 14.636719 375 32.691406 375 L 342.300781 375 C 360.363281 375 375 360.359375 375 342.300781 Z M 375 32.699219 " fill-opacity="1" fill-rule="evenodd"/><path fill="#ffffff" d="M 76.839844 300.667969 L 87.796875 262.300781 C 72.128906 241.453125 62.839844 215.550781 62.839844 187.5 C 62.839844 118.699219 118.699219 62.84375 187.5 62.84375 C 256.300781 62.84375 312.152344 118.699219 312.152344 187.5 C 312.152344 256.300781 256.300781 312.15625 187.5 312.15625 C 160.699219 312.15625 137.417969 301.1875 115.527344 289.265625 Z M 65.710938 270.378906 L 46.011719 331.503906 L 107.886719 311.453125 C 130.847656 326.238281 158.175781 334.820312 187.5 334.820312 C 268.808594 334.820312 334.820312 268.808594 334.820312 187.5 C 334.820312 106.191406 268.808594 40.179688 187.5 40.179688 C 106.191406 40.179688 40.179688 106.191406 40.179688 187.5 C 40.179688 218.21875 49.601562 246.757812 65.710938 270.378906 Z M 65.710938 270.378906 " fill-opacity="1" fill-rule="evenodd"/><path fill="#ffffff" d="M 132.769531 123.84375 C 119.847656 136.769531 117.339844 156.824219 126.691406 172.535156 C 133.492188 183.820312 144.148438 198.035156 160.929688 214.816406 C 177.300781 231.191406 191.136719 241.636719 202.183594 248.296875 C 217.894531 257.738281 238.019531 255.265625 250.976562 242.304688 C 251.804688 241.523438 252.601562 240.730469 253.371094 239.960938 C 258.644531 234.6875 258.644531 226.144531 253.371094 220.875 C 249.675781 217.183594 245.464844 212.964844 241.769531 209.273438 C 239.242188 206.742188 235.808594 205.320312 232.226562 205.320312 C 228.648438 205.320312 225.214844 206.742188 222.683594 209.273438 C 220.882812 211.078125 219.550781 212.414062 219.550781 212.414062 C 219.550781 212.414062 203.417969 213.710938 185.285156 195.574219 C 167.148438 177.441406 162.5625 155.425781 162.5625 155.425781 C 162.5625 155.425781 163.894531 154.089844 165.695312 152.289062 C 168.226562 149.757812 169.652344 146.324219 169.652344 142.746094 C 169.652344 139.167969 168.226562 135.734375 165.695312 133.203125 C 162.007812 129.511719 157.789062 125.292969 154.097656 121.601562 C 148.828125 116.332031 140.285156 116.332031 135.011719 121.601562 C 134.285156 122.332031 133.535156 123.082031 132.769531 123.84375 Z M 132.769531 123.84375 " fill-opacity="1" fill-rule="evenodd"/></svg>