<svg xmlns="http://www.w3.org/2000/svg" xmlns:xlink="http://www.w3.org/1999/xlink" width="1380" zoomAndPan="magnify" viewBox="0 0 1035 77.249999" height="103" preserveAspectRatio="xMidYMid meet" version="1.0"><defs><clipPath id="a85581599a"><path d="M 30.316406 14 L 72.652344 14 L 72.652344 62.945312 L 30.316406 62.945312 Z M 30.316406 14 " clip-rule="nonzero"/></clipPath><clipPath id="29babbbd27"><path d="M 96.207031 13.921875 L 140.03125 13.921875 L 140.03125 62.945312 L 96.207031 62.945312 Z M 96.207031 13.921875 " clip-rule="nonzero"/></clipPath><clipPath id="30ce3719b5"><path d="M 162.789062 13.921875 L 211.8125 13.921875 L 211.8125 62.945312 L 162.789062 62.945312 Z M 162.789062 13.921875 " clip-rule="nonzero"/></clipPath><clipPath id="fdd08e6b6f"><path d="M 234.480469 15 L 295.386719 15 L 295.386719 62 L 234.480469 62 Z M 234.480469 15 " clip-rule="nonzero"/></clipPath><clipPath id="14f6779a6b"><path d="M 318.722656 13.921875 L 367.746094 13.921875 L 367.746094 62.945312 L 318.722656 62.945312 Z M 318.722656 13.921875 " clip-rule="nonzero"/></clipPath><clipPath id="f45e9c570a"><path d="M 390.414062 16 L 456 16 L 456 61 L 390.414062 61 Z M 390.414062 16 " clip-rule="nonzero"/></clipPath><clipPath id="21b6909c6e"><path d="M 390.414062 13.921875 L 445 13.921875 L 445 62.945312 L 390.414062 62.945312 Z M 390.414062 13.921875 " clip-rule="nonzero"/></clipPath><clipPath id="ebf665caac"><path d="M 610.824219 20.191406 L 681.390625 20.191406 L 681.390625 62.53125 L 610.824219 62.53125 Z M 610.824219 20.191406 " clip-rule="nonzero"/></clipPath><clipPath id="c1dc85c1b2"><path d="M 646.105469 20.191406 C 636.699219 20.191406 630.820312 24.894531 628.46875 34.304688 C 631.996094 29.597656 636.113281 27.835938 640.816406 29.011719 C 643.5 29.683594 645.417969 31.628906 647.539062 33.785156 C 651 37.296875 655 41.359375 663.746094 41.359375 C 673.152344 41.359375 679.03125 36.65625 681.382812 27.246094 C 677.855469 31.953125 673.738281 33.714844 669.035156 32.539062 C 666.351562 31.867188 664.433594 29.921875 662.3125 27.765625 C 658.851562 24.253906 654.851562 20.191406 646.105469 20.191406 Z M 628.46875 41.359375 C 619.0625 41.359375 613.183594 46.066406 610.832031 55.472656 C 614.359375 50.769531 618.476562 49.003906 623.179688 50.179688 C 625.863281 50.851562 627.78125 52.800781 629.902344 54.953125 C 633.363281 58.464844 637.363281 62.53125 646.105469 62.53125 C 655.511719 62.53125 661.394531 57.824219 663.746094 48.417969 C 660.21875 53.121094 656.101562 54.886719 651.398438 53.710938 C 648.714844 53.039062 646.796875 51.089844 644.671875 48.933594 C 641.214844 45.425781 637.210938 41.359375 628.46875 41.359375 Z M 628.46875 41.359375 " clip-rule="nonzero"/></clipPath><linearGradient x1="-13.502149" gradientTransform="matrix(0.47033, 0, 0, 0.470433, 610.8322, 20.1907)" y1="23.417493" x2="138.017692" gradientUnits="userSpaceOnUse" y2="110.78155" id="4d3ecae2cb"><stop stop-opacity="1" stop-color="rgb(13.299561%, 59.599304%, 74.099731%)" offset="0"/><stop stop-opacity="1" stop-color="rgb(13.294983%, 59.611511%, 74.098206%)" offset="0.0625"/><stop stop-opacity="1" stop-color="rgb(13.25531%, 59.738159%, 74.081421%)" offset="0.0703125"/><stop stop-opacity="1" stop-color="rgb(13.183594%, 59.963989%, 74.052429%)" offset="0.078125"/><stop stop-opacity="1" stop-color="rgb(13.111877%, 60.189819%, 74.024963%)" offset="0.0859375"/><stop stop-opacity="1" stop-color="rgb(13.041687%, 60.414124%, 73.995972%)" offset="0.09375"/><stop stop-opacity="1" stop-color="rgb(12.969971%, 60.639954%, 73.968506%)" offset="0.101563"/><stop stop-opacity="1" stop-color="rgb(12.898254%, 60.865784%, 73.939514%)" offset="0.109375"/><stop stop-opacity="1" stop-color="rgb(12.828064%, 61.091614%, 73.912048%)" offset="0.117188"/><stop stop-opacity="1" stop-color="rgb(12.756348%, 61.317444%, 73.883057%)" offset="0.125"/><stop stop-opacity="1" stop-color="rgb(12.684631%, 61.543274%, 73.854065%)" offset="0.132813"/><stop stop-opacity="1" stop-color="rgb(12.612915%, 61.769104%, 73.826599%)" offset="0.140625"/><stop stop-opacity="1" stop-color="rgb(12.542725%, 61.994934%, 73.797607%)" offset="0.148438"/><stop stop-opacity="1" stop-color="rgb(12.471008%, 62.220764%, 73.770142%)" offset="0.15625"/><stop stop-opacity="1" stop-color="rgb(12.399292%, 62.446594%, 73.74115%)" offset="0.164063"/><stop stop-opacity="1" stop-color="rgb(12.329102%, 62.672424%, 73.713684%)" offset="0.171875"/><stop stop-opacity="1" stop-color="rgb(12.257385%, 62.896729%, 73.684692%)" offset="0.179688"/><stop stop-opacity="1" stop-color="rgb(12.185669%, 63.122559%, 73.657227%)" offset="0.1875"/><stop stop-opacity="1" stop-color="rgb(12.113953%, 63.348389%, 73.628235%)" offset="0.195312"/><stop stop-opacity="1" stop-color="rgb(12.043762%, 63.574219%, 73.599243%)" offset="0.203125"/><stop stop-opacity="1" stop-color="rgb(11.972046%, 63.800049%, 73.571777%)" offset="0.210938"/><stop stop-opacity="1" stop-color="rgb(11.90033%, 64.025879%, 73.542786%)" offset="0.21875"/><stop stop-opacity="1" stop-color="rgb(11.830139%, 64.251709%, 73.51532%)" offset="0.226563"/><stop stop-opacity="1" stop-color="rgb(11.758423%, 64.477539%, 73.486328%)" offset="0.234375"/><stop stop-opacity="1" stop-color="rgb(11.686707%, 64.703369%, 73.458862%)" offset="0.242188"/><stop stop-opacity="1" stop-color="rgb(11.61499%, 64.929199%, 73.429871%)" offset="0.25"/><stop stop-opacity="1" stop-color="rgb(11.5448%, 65.155029%, 73.400879%)" offset="0.257031"/><stop stop-opacity="1" stop-color="rgb(11.509705%, 65.267944%, 73.387146%)" offset="0.257813"/><stop stop-opacity="1" stop-color="rgb(11.473083%, 65.380859%, 73.373413%)" offset="0.265625"/><stop stop-opacity="1" stop-color="rgb(11.401367%, 65.605164%, 73.344421%)" offset="0.273438"/><stop stop-opacity="1" stop-color="rgb(11.331177%, 65.830994%, 73.316956%)" offset="0.28125"/><stop stop-opacity="1" stop-color="rgb(11.25946%, 66.056824%, 73.287964%)" offset="0.289063"/><stop stop-opacity="1" stop-color="rgb(11.187744%, 66.282654%, 73.260498%)" offset="0.296875"/><stop stop-opacity="1" stop-color="rgb(11.116028%, 66.508484%, 73.231506%)" offset="0.304688"/><stop stop-opacity="1" stop-color="rgb(11.045837%, 66.734314%, 73.204041%)" offset="0.3125"/><stop stop-opacity="1" stop-color="rgb(10.974121%, 66.960144%, 73.175049%)" offset="0.320313"/><stop stop-opacity="1" stop-color="rgb(10.902405%, 67.185974%, 73.146057%)" offset="0.328125"/><stop stop-opacity="1" stop-color="rgb(10.832214%, 67.411804%, 73.118591%)" offset="0.335938"/><stop stop-opacity="1" stop-color="rgb(10.760498%, 67.637634%, 73.0896%)" offset="0.34375"/><stop stop-opacity="1" stop-color="rgb(10.688782%, 67.863464%, 73.062134%)" offset="0.351562"/><stop stop-opacity="1" stop-color="rgb(10.618591%, 68.087769%, 73.033142%)" offset="0.359375"/><stop stop-opacity="1" stop-color="rgb(10.546875%, 68.313599%, 73.005676%)" offset="0.367188"/><stop stop-opacity="1" stop-color="rgb(10.475159%, 68.539429%, 72.976685%)" offset="0.375"/><stop stop-opacity="1" stop-color="rgb(10.403442%, 68.765259%, 72.947693%)" offset="0.382813"/><stop stop-opacity="1" stop-color="rgb(10.333252%, 68.991089%, 72.920227%)" offset="0.390625"/><stop stop-opacity="1" stop-color="rgb(10.261536%, 69.216919%, 72.891235%)" offset="0.398438"/><stop stop-opacity="1" stop-color="rgb(10.189819%, 69.442749%, 72.86377%)" offset="0.40625"/><stop stop-opacity="1" stop-color="rgb(10.119629%, 69.668579%, 72.834778%)" offset="0.414063"/><stop stop-opacity="1" stop-color="rgb(10.047913%, 69.894409%, 72.807312%)" offset="0.421875"/><stop stop-opacity="1" stop-color="rgb(9.976196%, 70.120239%, 72.77832%)" offset="0.429688"/><stop stop-opacity="1" stop-color="rgb(9.90448%, 70.346069%, 72.749329%)" offset="0.4375"/><stop stop-opacity="1" stop-color="rgb(9.83429%, 70.570374%, 72.721863%)" offset="0.445313"/><stop stop-opacity="1" stop-color="rgb(9.762573%, 70.796204%, 72.692871%)" offset="0.453125"/><stop stop-opacity="1" stop-color="rgb(9.690857%, 71.022034%, 72.665405%)" offset="0.460938"/><stop stop-opacity="1" stop-color="rgb(9.620667%, 71.247864%, 72.636414%)" offset="0.46875"/><stop stop-opacity="1" stop-color="rgb(9.54895%, 71.473694%, 72.608948%)" offset="0.476562"/><stop stop-opacity="1" stop-color="rgb(9.477234%, 71.699524%, 72.579956%)" offset="0.484375"/><stop stop-opacity="1" stop-color="rgb(9.405518%, 71.925354%, 72.55249%)" offset="0.492188"/><stop stop-opacity="1" stop-color="rgb(9.335327%, 72.151184%, 72.523499%)" offset="0.5"/><stop stop-opacity="1" stop-color="rgb(9.263611%, 72.377014%, 72.494507%)" offset="0.507812"/><stop stop-opacity="1" stop-color="rgb(9.191895%, 72.602844%, 72.467041%)" offset="0.515625"/><stop stop-opacity="1" stop-color="rgb(9.121704%, 72.828674%, 72.438049%)" offset="0.523438"/><stop stop-opacity="1" stop-color="rgb(9.049988%, 73.054504%, 72.410583%)" offset="0.53125"/><stop stop-opacity="1" stop-color="rgb(8.978271%, 73.278809%, 72.381592%)" offset="0.539063"/><stop stop-opacity="1" stop-color="rgb(8.908081%, 73.504639%, 72.354126%)" offset="0.546875"/><stop stop-opacity="1" stop-color="rgb(8.836365%, 73.730469%, 72.325134%)" offset="0.554688"/><stop stop-opacity="1" stop-color="rgb(8.764648%, 73.956299%, 72.296143%)" offset="0.5625"/><stop stop-opacity="1" stop-color="rgb(8.692932%, 74.182129%, 72.268677%)" offset="0.570313"/><stop stop-opacity="1" stop-color="rgb(8.622742%, 74.407959%, 72.239685%)" offset="0.578125"/><stop stop-opacity="1" stop-color="rgb(8.551025%, 74.633789%, 72.212219%)" offset="0.585938"/><stop stop-opacity="1" stop-color="rgb(8.479309%, 74.859619%, 72.183228%)" offset="0.59375"/><stop stop-opacity="1" stop-color="rgb(8.409119%, 75.085449%, 72.155762%)" offset="0.601563"/><stop stop-opacity="1" stop-color="rgb(8.337402%, 75.311279%, 72.12677%)" offset="0.609375"/><stop stop-opacity="1" stop-color="rgb(8.265686%, 75.537109%, 72.099304%)" offset="0.617188"/><stop stop-opacity="1" stop-color="rgb(8.19397%, 75.761414%, 72.070312%)" offset="0.625"/><stop stop-opacity="1" stop-color="rgb(8.123779%, 75.987244%, 72.041321%)" offset="0.632813"/><stop stop-opacity="1" stop-color="rgb(8.052063%, 76.213074%, 72.013855%)" offset="0.640625"/><stop stop-opacity="1" stop-color="rgb(7.980347%, 76.438904%, 71.984863%)" offset="0.648438"/><stop stop-opacity="1" stop-color="rgb(7.910156%, 76.664734%, 71.957397%)" offset="0.65625"/><stop stop-opacity="1" stop-color="rgb(7.83844%, 76.890564%, 71.928406%)" offset="0.664062"/><stop stop-opacity="1" stop-color="rgb(7.766724%, 77.116394%, 71.90094%)" offset="0.671875"/><stop stop-opacity="1" stop-color="rgb(7.695007%, 77.342224%, 71.871948%)" offset="0.679688"/><stop stop-opacity="1" stop-color="rgb(7.624817%, 77.568054%, 71.842957%)" offset="0.6875"/><stop stop-opacity="1" stop-color="rgb(7.553101%, 77.793884%, 71.815491%)" offset="0.695312"/><stop stop-opacity="1" stop-color="rgb(7.481384%, 78.019714%, 71.786499%)" offset="0.703125"/><stop stop-opacity="1" stop-color="rgb(7.411194%, 78.244019%, 71.759033%)" offset="0.710938"/><stop stop-opacity="1" stop-color="rgb(7.339478%, 78.469849%, 71.730042%)" offset="0.71875"/><stop stop-opacity="1" stop-color="rgb(7.267761%, 78.695679%, 71.702576%)" offset="0.726563"/><stop stop-opacity="1" stop-color="rgb(7.196045%, 78.921509%, 71.673584%)" offset="0.734375"/><stop stop-opacity="1" stop-color="rgb(7.125854%, 79.147339%, 71.646118%)" offset="0.742188"/><stop stop-opacity="1" stop-color="rgb(7.054138%, 79.373169%, 71.617126%)" offset="0.742969"/><stop stop-opacity="1" stop-color="rgb(7.019043%, 79.486084%, 71.603394%)" offset="0.75"/><stop stop-opacity="1" stop-color="rgb(6.982422%, 79.598999%, 71.588135%)" offset="0.757813"/><stop stop-opacity="1" stop-color="rgb(6.912231%, 79.824829%, 71.560669%)" offset="0.765625"/><stop stop-opacity="1" stop-color="rgb(6.840515%, 80.050659%, 71.531677%)" offset="0.773438"/><stop stop-opacity="1" stop-color="rgb(6.768799%, 80.276489%, 71.504211%)" offset="0.78125"/><stop stop-opacity="1" stop-color="rgb(6.698608%, 80.502319%, 71.47522%)" offset="0.789063"/><stop stop-opacity="1" stop-color="rgb(6.626892%, 80.726624%, 71.447754%)" offset="0.796875"/><stop stop-opacity="1" stop-color="rgb(6.555176%, 80.952454%, 71.418762%)" offset="0.804688"/><stop stop-opacity="1" stop-color="rgb(6.483459%, 81.178284%, 71.389771%)" offset="0.8125"/><stop stop-opacity="1" stop-color="rgb(6.413269%, 81.404114%, 71.362305%)" offset="0.820313"/><stop stop-opacity="1" stop-color="rgb(6.341553%, 81.629944%, 71.333313%)" offset="0.828125"/><stop stop-opacity="1" stop-color="rgb(6.269836%, 81.855774%, 71.305847%)" offset="0.835938"/><stop stop-opacity="1" stop-color="rgb(6.199646%, 82.081604%, 71.276855%)" offset="0.84375"/><stop stop-opacity="1" stop-color="rgb(6.12793%, 82.307434%, 71.24939%)" offset="0.851562"/><stop stop-opacity="1" stop-color="rgb(6.056213%, 82.533264%, 71.220398%)" offset="0.859375"/><stop stop-opacity="1" stop-color="rgb(5.984497%, 82.759094%, 71.191406%)" offset="0.867188"/><stop stop-opacity="1" stop-color="rgb(5.914307%, 82.984924%, 71.16394%)" offset="0.875"/><stop stop-opacity="1" stop-color="rgb(5.84259%, 83.210754%, 71.134949%)" offset="0.882812"/><stop stop-opacity="1" stop-color="rgb(5.770874%, 83.435059%, 71.107483%)" offset="0.890625"/><stop stop-opacity="1" stop-color="rgb(5.700684%, 83.660889%, 71.078491%)" offset="0.898438"/><stop stop-opacity="1" stop-color="rgb(5.628967%, 83.886719%, 71.051025%)" offset="0.90625"/><stop stop-opacity="1" stop-color="rgb(5.54657%, 84.14917%, 71.017456%)" offset="0.9375"/><stop stop-opacity="1" stop-color="rgb(5.499268%, 84.298706%, 70.999146%)" offset="1"/></linearGradient><clipPath id="5904258ac5"><path d="M 552.847656 27 L 572 27 L 572 54 L 552.847656 54 Z M 552.847656 27 " clip-rule="nonzero"/></clipPath><clipPath id="1de0c9f64a"><path d="M 552.847656 24 L 587.757812 24 L 587.757812 62.945312 L 552.847656 62.945312 Z M 552.847656 24 " clip-rule="nonzero"/></clipPath><clipPath id="6e07268c82"><path d="M 552.847656 14 L 567 14 L 567 54 L 552.847656 54 Z M 552.847656 14 " clip-rule="nonzero"/></clipPath><clipPath id="5e06698ce1"><path d="M 705.835938 18.871094 L 739 18.871094 L 739 52 L 705.835938 52 Z M 705.835938 18.871094 " clip-rule="nonzero"/></clipPath><clipPath id="1cedfdcda1"><path d="M 727.597656 18.867188 C 716.476562 18.867188 717.171875 23.714844 717.171875 23.714844 L 717.183594 28.738281 L 727.796875 28.738281 L 727.796875 30.246094 L 712.96875 30.246094 C 712.96875 30.246094 705.855469 29.4375 705.855469 40.71875 C 705.855469 52 712.066406 51.601562 712.066406 51.601562 L 715.773438 51.601562 L 715.773438 46.363281 C 715.773438 46.363281 715.570312 40.121094 721.882812 40.121094 L 732.40625 40.121094 C 732.40625 40.121094 738.320312 40.214844 738.320312 34.375 L 738.320312 24.714844 C 738.320312 24.714844 739.21875 18.867188 727.597656 18.867188 Z M 721.746094 22.246094 C 722.800781 22.246094 723.65625 23.101562 723.65625 24.164062 C 723.65625 25.226562 722.800781 26.085938 721.746094 26.085938 C 720.691406 26.085938 719.835938 25.226562 719.835938 24.164062 C 719.835938 23.101562 720.691406 22.246094 721.746094 22.246094 Z M 721.746094 22.246094 " clip-rule="nonzero"/></clipPath><linearGradient x1="0.00416859" gradientTransform="matrix(32.480999, 0, 0, 32.736136, 705.854839, 18.866641)" y1="-0.00405706" x2="1.027758" gradientUnits="userSpaceOnUse" y2="1.01158" id="7e9b5578b4"><stop stop-opacity="1" stop-color="rgb(21.998596%, 49.398804%, 72.198486%)" offset="0"/><stop stop-opacity="1" stop-color="rgb(21.99707%, 49.383545%, 72.171021%)" offset="0.125"/><stop stop-opacity="1" stop-color="rgb(21.986389%, 49.269104%, 71.974182%)" offset="0.140625"/><stop stop-opacity="1" stop-color="rgb(21.966553%, 49.072266%, 71.633911%)" offset="0.15625"/><stop stop-opacity="1" stop-color="rgb(21.948242%, 48.875427%, 71.29364%)" offset="0.171875"/><stop stop-opacity="1" stop-color="rgb(21.928406%, 48.678589%, 70.953369%)" offset="0.1875"/><stop stop-opacity="1" stop-color="rgb(21.910095%, 48.48175%, 70.611572%)" offset="0.203125"/><stop stop-opacity="1" stop-color="rgb(21.890259%, 48.286438%, 70.271301%)" offset="0.21875"/><stop stop-opacity="1" stop-color="rgb(21.870422%, 48.0896%, 69.93103%)" offset="0.234375"/><stop stop-opacity="1" stop-color="rgb(21.852112%, 47.892761%, 69.590759%)" offset="0.25"/><stop stop-opacity="1" stop-color="rgb(21.832275%, 47.695923%, 69.250488%)" offset="0.265625"/><stop stop-opacity="1" stop-color="rgb(21.813965%, 47.499084%, 68.908691%)" offset="0.28125"/><stop stop-opacity="1" stop-color="rgb(21.794128%, 47.302246%, 68.56842%)" offset="0.296875"/><stop stop-opacity="1" stop-color="rgb(21.775818%, 47.105408%, 68.228149%)" offset="0.3125"/><stop stop-opacity="1" stop-color="rgb(21.755981%, 46.908569%, 67.887878%)" offset="0.328125"/><stop stop-opacity="1" stop-color="rgb(21.736145%, 46.711731%, 67.546082%)" offset="0.34375"/><stop stop-opacity="1" stop-color="rgb(21.717834%, 46.514893%, 67.205811%)" offset="0.359375"/><stop stop-opacity="1" stop-color="rgb(21.697998%, 46.31958%, 66.86554%)" offset="0.375"/><stop stop-opacity="1" stop-color="rgb(21.679688%, 46.122742%, 66.525269%)" offset="0.390625"/><stop stop-opacity="1" stop-color="rgb(21.659851%, 45.925903%, 66.184998%)" offset="0.40625"/><stop stop-opacity="1" stop-color="rgb(21.641541%, 45.729065%, 65.843201%)" offset="0.421875"/><stop stop-opacity="1" stop-color="rgb(21.621704%, 45.532227%, 65.50293%)" offset="0.4375"/><stop stop-opacity="1" stop-color="rgb(21.601868%, 45.335388%, 65.162659%)" offset="0.453125"/><stop stop-opacity="1" stop-color="rgb(21.583557%, 45.13855%, 64.822388%)" offset="0.46875"/><stop stop-opacity="1" stop-color="rgb(21.563721%, 44.941711%, 64.482117%)" offset="0.484375"/><stop stop-opacity="1" stop-color="rgb(21.54541%, 44.744873%, 64.14032%)" offset="0.494335"/><stop stop-opacity="1" stop-color="rgb(21.536255%, 44.647217%, 63.970947%)" offset="0.5"/><stop stop-opacity="1" stop-color="rgb(21.525574%, 44.548035%, 63.800049%)" offset="0.505665"/><stop stop-opacity="1" stop-color="rgb(21.516418%, 44.450378%, 63.630676%)" offset="0.515625"/><stop stop-opacity="1" stop-color="rgb(21.505737%, 44.352722%, 63.459778%)" offset="0.53125"/><stop stop-opacity="1" stop-color="rgb(21.487427%, 44.155884%, 63.119507%)" offset="0.546875"/><stop stop-opacity="1" stop-color="rgb(21.46759%, 43.959045%, 62.77771%)" offset="0.5625"/><stop stop-opacity="1" stop-color="rgb(21.44928%, 43.762207%, 62.437439%)" offset="0.578125"/><stop stop-opacity="1" stop-color="rgb(21.429443%, 43.565369%, 62.097168%)" offset="0.59375"/><stop stop-opacity="1" stop-color="rgb(21.411133%, 43.36853%, 61.756897%)" offset="0.609375"/><stop stop-opacity="1" stop-color="rgb(21.391296%, 43.171692%, 61.416626%)" offset="0.625"/><stop stop-opacity="1" stop-color="rgb(21.37146%, 42.974854%, 61.074829%)" offset="0.640625"/><stop stop-opacity="1" stop-color="rgb(21.353149%, 42.778015%, 60.734558%)" offset="0.65625"/><stop stop-opacity="1" stop-color="rgb(21.333313%, 42.582703%, 60.394287%)" offset="0.671875"/><stop stop-opacity="1" stop-color="rgb(21.315002%, 42.385864%, 60.054016%)" offset="0.6875"/><stop stop-opacity="1" stop-color="rgb(21.295166%, 42.189026%, 59.713745%)" offset="0.703125"/><stop stop-opacity="1" stop-color="rgb(21.276855%, 41.992188%, 59.371948%)" offset="0.71875"/><stop stop-opacity="1" stop-color="rgb(21.257019%, 41.795349%, 59.031677%)" offset="0.734375"/><stop stop-opacity="1" stop-color="rgb(21.237183%, 41.598511%, 58.691406%)" offset="0.75"/><stop stop-opacity="1" stop-color="rgb(21.218872%, 41.401672%, 58.351135%)" offset="0.765625"/><stop stop-opacity="1" stop-color="rgb(21.203613%, 41.25061%, 58.09021%)" offset="0.78125"/><stop stop-opacity="1" stop-color="rgb(21.199036%, 41.19873%, 57.998657%)" offset="0.8125"/><stop stop-opacity="1" stop-color="rgb(21.199036%, 41.19873%, 57.998657%)" offset="0.875"/><stop stop-opacity="1" stop-color="rgb(21.199036%, 41.19873%, 57.998657%)" offset="1"/></linearGradient><clipPath id="0d81e6845b"><path d="M 717 29 L 749.660156 29 L 749.660156 62.695312 L 717 62.695312 Z M 717 29 " clip-rule="nonzero"/></clipPath><clipPath id="6705a6792e"><path d="M 727.914062 62.683594 C 739.035156 62.683594 738.339844 57.835938 738.339844 57.835938 L 738.328125 52.808594 L 727.714844 52.808594 L 727.714844 51.300781 L 742.539062 51.300781 C 742.539062 51.300781 749.65625 52.113281 749.65625 40.832031 C 749.65625 29.550781 743.445312 29.949219 743.445312 29.949219 L 739.738281 29.949219 L 739.738281 35.183594 C 739.738281 35.183594 739.9375 41.429688 733.628906 41.429688 L 723.101562 41.429688 C 723.101562 41.429688 717.191406 41.332031 717.191406 47.175781 L 717.191406 56.835938 C 717.191406 56.835938 716.292969 62.683594 727.914062 62.683594 Z M 733.765625 59.304688 C 732.710938 59.304688 731.855469 58.445312 731.855469 57.386719 C 731.855469 56.324219 732.710938 55.464844 733.765625 55.464844 C 734.820312 55.464844 735.671875 56.324219 735.671875 57.386719 C 735.671875 58.445312 734.820312 59.304688 733.765625 59.304688 Z M 733.765625 59.304688 " clip-rule="nonzero"/></clipPath><linearGradient x1="-0.0326452" gradientTransform="matrix(32.481984, 0, 0, 32.736302, 717.174746, 29.94757)" y1="-0.00636578" x2="1.013978" gradientUnits="userSpaceOnUse" y2="0.985247" id="c0d11f74f3"><stop stop-opacity="1" stop-color="rgb(100%, 87.799072%, 32.199097%)" offset="0"/><stop stop-opacity="1" stop-color="rgb(100%, 87.799072%, 32.199097%)" offset="0.125"/><stop stop-opacity="1" stop-color="rgb(100%, 87.799072%, 32.199097%)" offset="0.1875"/><stop stop-opacity="1" stop-color="rgb(100%, 87.759399%, 32.15332%)" offset="0.21875"/><stop stop-opacity="1" stop-color="rgb(100%, 87.590027%, 31.959534%)" offset="0.234375"/><stop stop-opacity="1" stop-color="rgb(100%, 87.332153%, 31.661987%)" offset="0.25"/><stop stop-opacity="1" stop-color="rgb(100%, 87.07428%, 31.365967%)" offset="0.265625"/><stop stop-opacity="1" stop-color="rgb(100%, 86.816406%, 31.06842%)" offset="0.28125"/><stop stop-opacity="1" stop-color="rgb(100%, 86.558533%, 30.7724%)" offset="0.296875"/><stop stop-opacity="1" stop-color="rgb(100%, 86.300659%, 30.474854%)" offset="0.3125"/><stop stop-opacity="1" stop-color="rgb(100%, 86.04126%, 30.177307%)" offset="0.328125"/><stop stop-opacity="1" stop-color="rgb(100%, 85.783386%, 29.881287%)" offset="0.34375"/><stop stop-opacity="1" stop-color="rgb(100%, 85.525513%, 29.58374%)" offset="0.359375"/><stop stop-opacity="1" stop-color="rgb(100%, 85.267639%, 29.28772%)" offset="0.375"/><stop stop-opacity="1" stop-color="rgb(100%, 85.009766%, 28.990173%)" offset="0.390625"/><stop stop-opacity="1" stop-color="rgb(100%, 84.751892%, 28.694153%)" offset="0.40625"/><stop stop-opacity="1" stop-color="rgb(100%, 84.494019%, 28.396606%)" offset="0.421875"/><stop stop-opacity="1" stop-color="rgb(100%, 84.236145%, 28.100586%)" offset="0.4375"/><stop stop-opacity="1" stop-color="rgb(100%, 83.978271%, 27.80304%)" offset="0.453125"/><stop stop-opacity="1" stop-color="rgb(100%, 83.720398%, 27.505493%)" offset="0.46875"/><stop stop-opacity="1" stop-color="rgb(100%, 83.460999%, 27.209473%)" offset="0.482837"/><stop stop-opacity="1" stop-color="rgb(100%, 83.332825%, 27.061462%)" offset="0.484375"/><stop stop-opacity="1" stop-color="rgb(100%, 83.203125%, 26.911926%)" offset="0.5"/><stop stop-opacity="1" stop-color="rgb(100%, 82.945251%, 26.615906%)" offset="0.515625"/><stop stop-opacity="1" stop-color="rgb(100%, 82.687378%, 26.318359%)" offset="0.517163"/><stop stop-opacity="1" stop-color="rgb(100%, 82.559204%, 26.170349%)" offset="0.53125"/><stop stop-opacity="1" stop-color="rgb(100%, 82.429504%, 26.022339%)" offset="0.546875"/><stop stop-opacity="1" stop-color="rgb(100%, 82.171631%, 25.724792%)" offset="0.5625"/><stop stop-opacity="1" stop-color="rgb(100%, 81.913757%, 25.428772%)" offset="0.578125"/><stop stop-opacity="1" stop-color="rgb(100%, 81.655884%, 25.131226%)" offset="0.59375"/><stop stop-opacity="1" stop-color="rgb(100%, 81.39801%, 24.835205%)" offset="0.609375"/><stop stop-opacity="1" stop-color="rgb(100%, 81.138611%, 24.537659%)" offset="0.625"/><stop stop-opacity="1" stop-color="rgb(100%, 80.880737%, 24.240112%)" offset="0.640625"/><stop stop-opacity="1" stop-color="rgb(100%, 80.622864%, 23.944092%)" offset="0.65625"/><stop stop-opacity="1" stop-color="rgb(100%, 80.36499%, 23.646545%)" offset="0.671875"/><stop stop-opacity="1" stop-color="rgb(100%, 80.107117%, 23.350525%)" offset="0.6875"/><stop stop-opacity="1" stop-color="rgb(100%, 79.849243%, 23.052979%)" offset="0.703125"/><stop stop-opacity="1" stop-color="rgb(100%, 79.59137%, 22.756958%)" offset="0.71875"/><stop stop-opacity="1" stop-color="rgb(100%, 79.333496%, 22.459412%)" offset="0.734375"/><stop stop-opacity="1" stop-color="rgb(100%, 79.075623%, 22.163391%)" offset="0.75"/><stop stop-opacity="1" stop-color="rgb(100%, 78.816223%, 21.865845%)" offset="0.765625"/><stop stop-opacity="1" stop-color="rgb(100%, 78.55835%, 21.568298%)" offset="0.78125"/><stop stop-opacity="1" stop-color="rgb(100%, 78.300476%, 21.272278%)" offset="0.796875"/><stop stop-opacity="1" stop-color="rgb(100%, 78.042603%, 20.974731%)" offset="0.8125"/><stop stop-opacity="1" stop-color="rgb(100%, 77.784729%, 20.678711%)" offset="0.828125"/><stop stop-opacity="1" stop-color="rgb(100%, 77.526855%, 20.381165%)" offset="0.84375"/><stop stop-opacity="1" stop-color="rgb(100%, 77.268982%, 20.085144%)" offset="0.859375"/><stop stop-opacity="1" stop-color="rgb(100%, 77.011108%, 19.787598%)" offset="0.875"/><stop stop-opacity="1" stop-color="rgb(100%, 76.753235%, 19.491577%)" offset="0.890625"/><stop stop-opacity="1" stop-color="rgb(100%, 76.560974%, 19.270325%)" offset="0.90625"/><stop stop-opacity="1" stop-color="rgb(100%, 76.499939%, 19.198608%)" offset="0.9375"/><stop stop-opacity="1" stop-color="rgb(100%, 76.499939%, 19.198608%)" offset="1"/></linearGradient><clipPath id="0b4b2f2564"><path d="M 773 43 L 807 43 L 807 59.394531 L 773 59.394531 Z M 773 43 " clip-rule="nonzero"/></clipPath><clipPath id="5476b44df4"><path d="M 823 18 L 853.78125 18 L 853.78125 48 L 823 48 Z M 823 18 " clip-rule="nonzero"/></clipPath><clipPath id="e3b9f9a59b"><path d="M 849 51 L 853.78125 51 L 853.78125 56 L 849 56 Z M 849 51 " clip-rule="nonzero"/></clipPath><clipPath id="d7e81fd15f"><path d="M 987 32 L 1010.957031 32 L 1010.957031 59 L 987 59 Z M 987 32 " clip-rule="nonzero"/></clipPath><clipPath id="67bc2d3af6"><path d="M 866.855469 17.570312 L 981 17.570312 L 981 59 L 866.855469 59 Z M 866.855469 17.570312 " clip-rule="nonzero"/></clipPath></defs><g clip-path="url(#a85581599a)"><path fill="#e44d26" d="M 34.160156 57.902344 L 30.304688 14.101562 L 72.664062 14.101562 L 68.808594 57.894531 L 51.457031 62.765625 Z M 34.160156 57.902344 " fill-opacity="1" fill-rule="nonzero"/></g><path fill="#f16529" d="M 65.503906 55.105469 L 68.800781 17.683594 L 51.484375 17.683594 L 51.484375 59.042969 Z M 65.503906 55.105469 " fill-opacity="1" fill-rule="nonzero"/><path fill="#ebebeb" d="M 51.464844 23.054688 L 38.183594 23.054688 L 39.617188 39.300781 L 51.484375 39.300781 L 51.484375 33.929688 L 44.46875 33.929688 L 43.980469 28.425781 L 51.484375 28.425781 L 51.484375 23.054688 Z M 51.484375 47.863281 L 51.460938 47.867188 L 45.554688 46.253906 L 45.179688 41.96875 L 39.851562 41.96875 L 40.597656 50.402344 L 51.460938 53.445312 L 51.484375 53.4375 Z M 51.484375 47.863281 " fill-opacity="1" fill-rule="nonzero"/><path fill="#ffffff" d="M 51.464844 39.300781 L 57.996094 39.300781 L 57.398438 46.265625 L 51.480469 47.882812 L 51.480469 53.46875 L 62.355469 50.417969 L 63.8125 33.925781 L 51.484375 33.925781 Z M 64.625 24.496094 L 64.75 23.054688 L 51.464844 23.054688 L 51.464844 28.425781 L 64.273438 28.425781 L 64.378906 27.21875 Z M 64.625 24.496094 " fill-opacity="1" fill-rule="nonzero"/><g clip-path="url(#29babbbd27)"><path fill="#0277bd" d="M 140.027344 13.921875 L 96.207031 13.921875 L 100.074219 57.785156 L 118.117188 62.945312 L 136.160156 57.785156 Z M 140.027344 13.921875 " fill-opacity="1" fill-rule="nonzero"/></g><path fill="#039be5" d="M 118.117188 17.792969 L 118.117188 58.945312 L 132.550781 54.816406 L 135.773438 17.792969 Z M 118.117188 17.792969 " fill-opacity="1" fill-rule="nonzero"/><path fill="#ffffff" d="M 129.847656 24.242188 L 118.117188 24.242188 L 118.117188 29.402344 L 124.433594 29.402344 L 124.046875 34.5625 L 118.117188 34.5625 L 118.117188 39.722656 L 123.789062 39.722656 L 123.402344 45.527344 L 118.117188 47.335938 L 118.117188 52.753906 L 128.300781 49.398438 L 129.203125 34.5625 Z M 129.847656 24.242188 " fill-opacity="1" fill-rule="nonzero"/><path fill="#eeeeee" d="M 118.117188 24.242188 L 118.117188 29.402344 L 106.648438 29.402344 L 106.261719 24.242188 Z M 112.1875 34.5625 L 112.445312 39.722656 L 118.117188 39.722656 L 118.117188 34.5625 Z M 112.703125 42.304688 L 107.550781 42.304688 L 107.9375 49.398438 L 118.117188 52.753906 L 118.117188 47.335938 L 112.832031 45.527344 Z M 112.703125 42.304688 " fill-opacity="1" fill-rule="nonzero"/><g clip-path="url(#30ce3719b5)"><path fill="#f7df1e" d="M 162.789062 13.921875 L 211.8125 13.921875 L 211.8125 62.945312 L 162.789062 62.945312 Z M 162.789062 13.921875 " fill-opacity="1" fill-rule="nonzero"/></g><path fill="#000000" d="M 175.679688 54.886719 L 179.429688 52.617188 C 180.152344 53.902344 180.8125 54.988281 182.390625 54.988281 C 183.90625 54.988281 184.859375 54.394531 184.859375 52.09375 L 184.859375 36.425781 L 189.464844 36.425781 L 189.464844 52.15625 C 189.464844 56.929688 186.667969 59.101562 182.589844 59.101562 C 178.902344 59.101562 176.765625 57.191406 175.679688 54.886719 " fill-opacity="1" fill-rule="nonzero"/><path fill="#000000" d="M 191.96875 54.394531 L 195.71875 52.222656 C 196.707031 53.835938 197.992188 55.019531 200.261719 55.019531 C 202.167969 55.019531 203.386719 54.066406 203.386719 52.75 C 203.386719 51.167969 202.136719 50.609375 200.03125 49.6875 L 198.878906 49.195312 C 195.554688 47.78125 193.351562 46.003906 193.351562 42.25 C 193.351562 38.796875 195.984375 36.164062 200.097656 36.164062 C 203.027344 36.164062 205.132812 37.183594 206.644531 39.851562 L 203.058594 42.152344 C 202.269531 40.738281 201.414062 40.179688 200.097656 40.179688 C 198.746094 40.179688 197.890625 41.035156 197.890625 42.152344 C 197.890625 43.535156 198.746094 44.09375 200.722656 44.953125 L 201.871094 45.445312 C 205.789062 47.121094 207.996094 48.832031 207.996094 52.683594 C 207.996094 56.832031 204.738281 59.101562 200.359375 59.101562 C 196.082031 59.101562 193.320312 57.058594 191.96875 54.394531 " fill-opacity="1" fill-rule="nonzero"/><g clip-path="url(#fdd08e6b6f)"><path fill="#f06292" d="M 286.820312 42.199219 C 284.703125 42.210938 282.871094 42.722656 281.339844 43.492188 C 280.777344 42.355469 280.207031 41.359375 280.113281 40.617188 C 280.003906 39.75 279.871094 39.234375 280.007812 38.203125 C 280.140625 37.171875 280.730469 35.707031 280.722656 35.597656 C 280.714844 35.488281 280.59375 34.964844 279.371094 34.953125 C 278.152344 34.945312 277.109375 35.191406 276.988281 35.519531 C 276.863281 35.84375 276.628906 36.578125 276.484375 37.34375 C 276.269531 38.460938 274.046875 42.457031 272.789062 44.542969 C 272.375 43.726562 272.023438 43.007812 271.953125 42.441406 C 271.839844 41.574219 271.710938 41.058594 271.847656 40.027344 C 271.980469 38.996094 272.570312 37.535156 272.5625 37.421875 C 272.554688 37.3125 272.429688 36.789062 271.210938 36.777344 C 269.992188 36.769531 268.949219 37.015625 268.824219 37.34375 C 268.703125 37.667969 268.570312 38.429688 268.320312 39.167969 C 268.070312 39.902344 265.121094 46.5625 264.347656 48.292969 C 263.953125 49.171875 263.609375 49.878906 263.367188 50.359375 C 263.367188 50.359375 263.351562 50.390625 263.324219 50.445312 C 263.117188 50.855469 262.996094 51.082031 262.996094 51.082031 C 262.996094 51.082031 262.996094 51.085938 263 51.089844 C 262.835938 51.390625 262.660156 51.671875 262.570312 51.671875 C 262.511719 51.671875 262.390625 50.867188 262.597656 49.765625 C 263.039062 47.457031 264.09375 43.851562 264.082031 43.726562 C 264.078125 43.664062 264.28125 43.035156 263.394531 42.707031 C 262.535156 42.386719 262.226562 42.921875 262.148438 42.921875 C 262.074219 42.921875 262.015625 43.109375 262.015625 43.109375 C 262.015625 43.109375 262.976562 39.058594 260.1875 39.058594 C 258.445312 39.058594 256.03125 40.988281 254.839844 42.738281 C 254.089844 43.152344 252.484375 44.039062 250.78125 44.988281 C 250.125 45.351562 249.457031 45.726562 248.824219 46.078125 C 248.78125 46.03125 248.738281 45.984375 248.691406 45.933594 C 245.3125 42.28125 239.0625 39.699219 239.328125 34.792969 C 239.425781 33.007812 240.039062 28.308594 251.335938 22.609375 C 260.589844 17.941406 268 19.226562 269.277344 22.070312 C 271.109375 26.140625 265.320312 33.699219 255.707031 34.792969 C 252.046875 35.207031 250.117188 33.769531 249.636719 33.234375 C 249.132812 32.671875 249.058594 32.644531 248.871094 32.753906 C 248.5625 32.925781 248.757812 33.421875 248.871094 33.71875 C 249.15625 34.472656 250.335938 35.816406 252.339844 36.484375 C 254.109375 37.070312 258.40625 37.390625 263.605469 35.355469 C 269.429688 33.074219 273.976562 26.730469 272.640625 21.429688 C 271.28125 16.035156 262.449219 14.261719 254.089844 17.269531 C 249.109375 19.058594 243.722656 21.867188 239.851562 25.535156 C 235.246094 29.894531 234.511719 33.691406 234.8125 35.277344 C 235.890625 40.910156 243.558594 44.578125 246.632812 47.296875 C 246.480469 47.382812 246.335938 47.460938 246.207031 47.535156 C 244.667969 48.304688 238.820312 51.402344 237.359375 54.675781 C 235.699219 58.390625 237.621094 61.054688 238.894531 61.414062 C 242.839844 62.523438 246.886719 60.523438 249.0625 57.238281 C 251.238281 53.957031 250.972656 49.679688 249.976562 47.726562 C 249.964844 47.703125 249.949219 47.679688 249.9375 47.65625 C 250.335938 47.417969 250.738281 47.175781 251.140625 46.933594 C 251.925781 46.46875 252.695312 46.035156 253.363281 45.667969 C 252.988281 46.703125 252.714844 47.945312 252.574219 49.738281 C 252.40625 51.847656 253.257812 54.570312 254.375 55.644531 C 254.867188 56.113281 255.457031 56.125 255.832031 56.125 C 257.132812 56.125 257.722656 55.03125 258.378906 53.738281 C 259.175781 52.148438 259.886719 50.300781 259.886719 50.300781 C 259.886719 50.300781 258.996094 55.292969 261.425781 55.292969 C 262.3125 55.292969 263.199219 54.132812 263.597656 53.539062 C 263.597656 53.546875 263.597656 53.550781 263.597656 53.550781 C 263.597656 53.550781 263.621094 53.511719 263.667969 53.433594 C 263.761719 53.292969 263.8125 53.203125 263.8125 53.203125 C 263.8125 53.203125 263.8125 53.191406 263.816406 53.175781 C 264.171875 52.550781 264.960938 51.125 266.144531 48.773438 C 267.671875 45.734375 269.140625 41.929688 269.140625 41.929688 C 269.140625 41.929688 269.273438 42.859375 269.722656 44.398438 C 269.984375 45.304688 270.542969 46.304688 270.984375 47.265625 C 270.628906 47.765625 270.410156 48.050781 270.410156 48.050781 C 270.410156 48.050781 270.414062 48.054688 270.417969 48.066406 C 270.132812 48.445312 269.816406 48.855469 269.484375 49.257812 C 268.277344 50.710938 266.839844 52.375 266.648438 52.851562 C 266.421875 53.417969 266.472656 53.832031 266.914062 54.167969 C 267.234375 54.414062 267.800781 54.449219 268.398438 54.410156 C 269.484375 54.335938 270.246094 54.0625 270.621094 53.898438 C 271.207031 53.6875 271.890625 53.359375 272.53125 52.882812 C 273.714844 52 274.429688 50.742188 274.359375 49.070312 C 274.320312 48.148438 274.035156 47.238281 273.667969 46.378906 C 273.773438 46.222656 273.882812 46.0625 273.988281 45.90625 C 275.855469 43.144531 277.304688 40.109375 277.304688 40.109375 C 277.304688 40.109375 277.4375 41.039062 277.886719 42.578125 C 278.113281 43.355469 278.558594 44.207031 278.960938 45.039062 C 277.207031 46.480469 276.117188 48.160156 275.738281 49.257812 C 275.042969 51.292969 275.589844 52.214844 276.613281 52.425781 C 277.078125 52.519531 277.734375 52.304688 278.230469 52.09375 C 278.84375 51.886719 279.582031 51.542969 280.273438 51.03125 C 281.457031 50.148438 282.59375 48.914062 282.527344 47.246094 C 282.496094 46.488281 282.292969 45.730469 282.015625 45.007812 C 283.503906 44.378906 285.425781 44.03125 287.878906 44.320312 C 293.140625 44.945312 294.171875 48.269531 293.976562 49.660156 C 293.777344 51.054688 292.675781 51.820312 292.304688 52.050781 C 291.9375 52.28125 291.824219 52.363281 291.855469 52.53125 C 291.902344 52.78125 292.070312 52.773438 292.386719 52.71875 C 292.820312 52.644531 295.148438 51.589844 295.25 49.019531 C 295.375 45.753906 292.285156 42.171875 286.820312 42.199219 Z M 246.261719 56.039062 C 244.519531 57.964844 242.085938 58.691406 241.042969 58.078125 C 239.914062 57.417969 240.359375 54.585938 242.5 52.542969 C 243.800781 51.296875 245.484375 50.148438 246.601562 49.445312 C 246.855469 49.289062 247.226562 49.0625 247.683594 48.789062 C 247.757812 48.746094 247.800781 48.71875 247.800781 48.71875 L 247.796875 48.71875 C 247.886719 48.664062 247.976562 48.609375 248.066406 48.554688 C 248.847656 51.460938 248.09375 54.019531 246.261719 56.039062 Z M 258.960938 47.304688 C 258.355469 48.800781 257.082031 52.632812 256.308594 52.429688 C 255.644531 52.25 255.242188 49.339844 256.175781 46.472656 C 256.648438 45.027344 257.652344 43.304688 258.246094 42.632812 C 259.195312 41.554688 260.246094 41.203125 260.5 41.640625 C 260.820312 42.199219 259.339844 46.363281 258.960938 47.304688 Z M 269.449219 52.371094 C 269.191406 52.507812 268.957031 52.589844 268.847656 52.527344 C 268.765625 52.476562 268.953125 52.296875 268.953125 52.296875 C 268.953125 52.296875 270.265625 50.867188 270.78125 50.21875 C 271.082031 49.839844 271.429688 49.390625 271.808594 48.890625 C 271.8125 48.9375 271.8125 48.988281 271.8125 49.039062 C 271.8125 50.75 270.179688 51.90625 269.449219 52.371094 Z M 277.53125 50.503906 C 277.335938 50.367188 277.371094 49.921875 278 48.527344 C 278.25 47.980469 278.816406 47.058594 279.796875 46.179688 C 279.910156 46.542969 279.980469 46.890625 279.980469 47.210938 C 279.964844 49.367188 278.449219 50.171875 277.53125 50.503906 Z M 277.53125 50.503906 " fill-opacity="1" fill-rule="nonzero"/></g><g clip-path="url(#14f6779a6b)"><path fill="#563d7c" d="M 318.722656 56.625 C 318.722656 60.113281 321.550781 62.945312 325.042969 62.945312 L 361.421875 62.945312 C 364.914062 62.945312 367.746094 60.113281 367.746094 56.625 L 367.746094 20.242188 C 367.746094 16.75 364.914062 13.921875 361.421875 13.921875 L 325.042969 13.921875 C 321.550781 13.921875 318.722656 16.75 318.722656 20.242188 Z M 318.722656 56.625 " fill-opacity="1" fill-rule="nonzero"/></g><path fill="#ffffff" d="M 339.050781 35.605469 L 339.050781 28.664062 L 345.160156 28.664062 C 345.742188 28.664062 346.304688 28.710938 346.84375 28.808594 C 347.386719 28.90625 347.863281 29.078125 348.28125 29.328125 C 348.695312 29.578125 349.027344 29.925781 349.277344 30.367188 C 349.527344 30.8125 349.652344 31.378906 349.652344 32.070312 C 349.652344 33.320312 349.277344 34.21875 348.527344 34.773438 C 347.78125 35.328125 346.824219 35.605469 345.660156 35.605469 Z M 332.523438 23.589844 L 332.523438 53.273438 L 346.90625 53.273438 C 348.238281 53.273438 349.535156 53.105469 350.792969 52.773438 C 352.054688 52.441406 353.179688 51.929688 354.164062 51.238281 C 355.148438 50.542969 355.929688 49.652344 356.511719 48.554688 C 357.09375 47.460938 357.382812 46.164062 357.382812 44.667969 C 357.382812 42.8125 356.933594 41.226562 356.03125 39.910156 C 355.132812 38.589844 353.769531 37.671875 351.9375 37.144531 C 353.269531 36.507812 354.273438 35.6875 354.953125 34.691406 C 355.632812 33.691406 355.96875 32.445312 355.96875 30.949219 C 355.96875 29.5625 355.742188 28.398438 355.285156 27.457031 C 354.828125 26.515625 354.183594 25.761719 353.351562 25.191406 C 352.519531 24.625 351.519531 24.214844 350.359375 23.964844 C 349.195312 23.714844 347.90625 23.589844 346.492188 23.589844 Z M 339.050781 48.203125 L 339.050781 40.054688 L 346.160156 40.054688 C 347.574219 40.054688 348.707031 40.378906 349.566406 41.03125 C 350.429688 41.683594 350.855469 42.769531 350.855469 44.292969 C 350.855469 45.070312 350.726562 45.707031 350.460938 46.207031 C 350.199219 46.707031 349.847656 47.101562 349.402344 47.390625 C 348.960938 47.683594 348.445312 47.890625 347.863281 48.015625 C 347.28125 48.140625 346.671875 48.203125 346.035156 48.203125 Z M 339.050781 48.203125 " fill-opacity="1" fill-rule="nonzero"/><path fill="#00d8ff" d="M 421.945312 38.390625 C 421.945312 38.699219 421.914062 39.003906 421.855469 39.308594 C 421.792969 39.609375 421.707031 39.90625 421.589844 40.191406 C 421.46875 40.476562 421.328125 40.746094 421.15625 41.003906 C 420.984375 41.261719 420.789062 41.5 420.574219 41.71875 C 420.355469 41.9375 420.121094 42.132812 419.863281 42.304688 C 419.609375 42.476562 419.339844 42.621094 419.054688 42.738281 C 418.769531 42.855469 418.480469 42.945312 418.175781 43.003906 C 417.875 43.066406 417.570312 43.097656 417.265625 43.097656 C 416.957031 43.097656 416.652344 43.066406 416.351562 43.003906 C 416.050781 42.945312 415.757812 42.855469 415.472656 42.738281 C 415.1875 42.621094 414.917969 42.476562 414.664062 42.304688 C 414.410156 42.132812 414.171875 41.9375 413.953125 41.71875 C 413.738281 41.5 413.542969 41.261719 413.371094 41.003906 C 413.203125 40.746094 413.058594 40.476562 412.941406 40.191406 C 412.824219 39.90625 412.734375 39.609375 412.671875 39.308594 C 412.613281 39.003906 412.582031 38.699219 412.582031 38.390625 C 412.582031 38.082031 412.613281 37.773438 412.671875 37.472656 C 412.734375 37.167969 412.824219 36.875 412.941406 36.589844 C 413.058594 36.300781 413.203125 36.03125 413.371094 35.773438 C 413.542969 35.515625 413.738281 35.28125 413.953125 35.0625 C 414.171875 34.84375 414.410156 34.648438 414.664062 34.476562 C 414.917969 34.304688 415.1875 34.160156 415.472656 34.039062 C 415.757812 33.921875 416.050781 33.832031 416.351562 33.773438 C 416.652344 33.710938 416.957031 33.683594 417.265625 33.683594 C 417.570312 33.683594 417.875 33.710938 418.175781 33.773438 C 418.480469 33.832031 418.769531 33.921875 419.054688 34.039062 C 419.339844 34.160156 419.609375 34.304688 419.863281 34.476562 C 420.121094 34.648438 420.355469 34.84375 420.574219 35.0625 C 420.789062 35.28125 420.984375 35.515625 421.15625 35.773438 C 421.328125 36.03125 421.46875 36.300781 421.589844 36.589844 C 421.707031 36.875 421.792969 37.167969 421.855469 37.472656 C 421.914062 37.773438 421.945312 38.082031 421.945312 38.390625 Z M 421.945312 38.390625 " fill-opacity="1" fill-rule="nonzero"/><g clip-path="url(#f45e9c570a)"><path stroke-linecap="butt" transform="matrix(0.0932971, 0, 0, 0.0938228, 392.117729, 16.094293)" fill="none" stroke-linejoin="miter" d="M 269.546478 135.638895 C 336.871745 135.638895 399.465821 145.298062 446.652124 161.535455 C 503.468285 181.103594 538.428856 210.788879 538.428856 237.643029 C 538.428856 265.621305 501.374838 297.138501 440.371782 317.37279 C 394.190333 332.652593 333.48036 340.646386 269.546478 340.646386 C 203.979707 340.646386 141.888058 333.152205 95.246051 317.206253 C 36.168967 297.013598 0.62223 265.080059 0.62223 237.643029 C 0.62223 210.997051 33.991781 181.561572 90.054301 161.993432 C 137.408081 145.506234 201.509439 135.638895 269.546478 135.638895 Z M 269.546478 135.638895 " stroke="#00d8ff" stroke-width="24" stroke-opacity="1" stroke-miterlimit="4"/></g><g clip-path="url(#21b6909c6e)"><path stroke-linecap="butt" transform="matrix(0.0932971, 0, 0, 0.0938228, 392.117729, 16.094293)" fill="none" stroke-linejoin="miter" d="M 180.742441 186.932402 C 214.405074 128.561057 254.013098 79.18273 291.653282 46.458138 C 336.997352 6.988784 380.164236 -8.499191 403.443371 4.948701 C 427.685491 18.937839 436.47797 66.734062 423.498596 129.726819 C 413.701263 177.356504 390.254652 233.937572 358.308646 289.352879 C 325.567129 346.142119 288.052552 396.144962 250.956665 428.619747 C 203.979707 469.671207 158.551899 484.534666 134.770337 470.836968 C 111.700547 457.513979 102.866199 413.881191 113.919601 355.593114 C 123.298245 306.33969 146.744856 245.844994 180.742441 186.932402 Z M 180.742441 186.932402 " stroke="#00d8ff" stroke-width="24" stroke-opacity="1" stroke-miterlimit="4"/><path stroke-linecap="butt" transform="matrix(0.0932971, 0, 0, 0.0938228, 392.117729, 16.094293)" fill="none" stroke-linejoin="miter" d="M 180.826179 289.477782 C 147.079807 231.189706 124.093755 172.193846 114.505767 123.231862 C 102.949937 64.236001 111.114382 19.104377 134.393516 5.656485 C 158.593768 -8.374288 204.440265 7.904739 252.505816 50.579938 C 288.889931 82.888186 326.195163 131.433827 358.224908 186.765865 C 391.092031 243.513471 415.710972 300.96886 425.257092 349.347963 C 437.399087 410.550444 427.559884 457.347442 403.820191 471.086774 C 380.750401 484.451397 338.546503 470.295722 293.579253 431.575785 C 255.562249 398.892828 214.907502 348.348739 180.826179 289.477782 Z M 180.826179 289.477782 " stroke="#00d8ff" stroke-width="24" stroke-opacity="1" stroke-miterlimit="4"/></g><path fill="#00d8ff" d="M 469.21875 50.414062 L 463.480469 41.699219 C 466.378906 41.441406 468.992188 39.328125 468.992188 35.46875 C 468.992188 31.542969 466.222656 29.027344 462.332031 29.027344 L 453.796875 29.027344 L 453.796875 50.398438 L 456.441406 50.398438 L 456.441406 41.90625 L 460.679688 41.90625 L 466.09375 50.398438 Z M 462.015625 39.585938 L 456.441406 39.585938 L 456.441406 31.414062 L 462.015625 31.414062 C 464.535156 31.414062 466.253906 33.082031 466.253906 35.484375 C 466.253906 37.886719 464.535156 39.589844 462.015625 39.589844 Z M 479.0625 50.796875 C 481.582031 50.796875 483.652344 49.964844 485.179688 48.429688 L 484.035156 46.859375 C 482.820312 48.109375 481.039062 48.8125 479.285156 48.8125 C 475.972656 48.8125 473.933594 46.375 473.742188 43.460938 L 486.199219 43.460938 L 486.199219 42.851562 C 486.199219 38.207031 483.457031 34.554688 478.804688 34.554688 C 474.410156 34.554688 471.222656 38.175781 471.222656 42.660156 C 471.222656 47.5 474.507812 50.785156 479.0625 50.785156 Z M 483.84375 41.699219 L 473.742188 41.699219 C 473.871094 39.328125 475.496094 36.539062 478.777344 36.539062 C 482.285156 36.539062 483.8125 39.390625 483.84375 41.699219 Z M 502.070312 50.414062 L 502.070312 39.777344 C 502.070312 36.027344 499.363281 34.554688 496.113281 34.554688 C 493.59375 34.554688 491.621094 35.386719 489.964844 37.117188 L 491.078125 38.78125 C 492.449219 37.308594 493.945312 36.636719 495.792969 36.636719 C 498.023438 36.636719 499.683594 37.820312 499.683594 39.902344 L 499.683594 42.691406 C 498.4375 41.25 496.6875 40.574219 494.582031 40.574219 C 491.972656 40.574219 489.195312 42.210938 489.195312 45.667969 C 489.195312 49.035156 491.96875 50.796875 494.582031 50.796875 C 496.65625 50.796875 498.410156 50.058594 499.683594 48.652344 L 499.683594 50.410156 Z M 495.445312 49.066406 C 493.214844 49.066406 491.652344 47.660156 491.652344 45.703125 C 491.652344 43.71875 493.214844 42.308594 495.445312 42.308594 C 497.132812 42.308594 498.757812 42.949219 499.683594 44.230469 L 499.683594 47.144531 C 498.757812 48.425781 497.132812 49.070312 495.445312 49.070312 Z M 513.625 50.796875 C 516.429688 50.796875 518.085938 49.644531 519.265625 48.109375 L 517.671875 46.632812 C 516.652344 48.011719 515.34375 48.652344 513.765625 48.652344 C 510.484375 48.652344 508.445312 46.089844 508.445312 42.660156 C 508.445312 39.234375 510.484375 36.703125 513.765625 36.703125 C 515.359375 36.703125 516.664062 37.3125 517.671875 38.71875 L 519.265625 37.246094 C 518.085938 35.707031 516.429688 34.554688 513.625 34.554688 C 509.035156 34.554688 505.945312 38.082031 505.945312 42.660156 C 505.945312 47.277344 509.035156 50.789062 513.625 50.789062 Z M 526.5 50.796875 C 527.898438 50.796875 528.761719 50.382812 529.367188 49.804688 L 528.667969 48.011719 C 528.347656 48.363281 527.722656 48.652344 527.042969 48.652344 C 525.992188 48.652344 525.480469 47.820312 525.480469 46.664062 L 525.480469 37.054688 L 528.601562 37.054688 L 528.601562 34.9375 L 525.480469 34.9375 L 525.480469 30.710938 L 523.089844 30.710938 L 523.089844 34.9375 L 520.539062 34.9375 L 520.539062 37.054688 L 523.089844 37.054688 L 523.089844 47.179688 C 523.089844 49.488281 524.234375 50.800781 526.5 50.800781 Z M 526.5 50.796875 " fill-opacity="1" fill-rule="evenodd"/><g clip-path="url(#ebf665caac)"><g clip-path="url(#c1dc85c1b2)"><path fill="url(#4d3ecae2cb)" d="M 610.832031 20.191406 L 610.832031 62.53125 L 681.382812 62.53125 L 681.382812 20.191406 Z M 610.832031 20.191406 " fill-rule="nonzero"/></g></g><path fill="#ffa000" d="M 575.84375 31.820312 L 571.007812 36.359375 L 566.519531 27.230469 L 568.84375 21.980469 C 569.445312 20.917969 570.390625 20.929688 570.976562 21.980469 Z M 575.84375 31.820312 " fill-opacity="1" fill-rule="nonzero"/><g clip-path="url(#5904258ac5)"><path fill="#f57f17" d="M 566.519531 27.230469 L 571.007812 36.359375 L 552.933594 53.3125 Z M 566.519531 27.230469 " fill-opacity="1" fill-rule="nonzero"/></g><g clip-path="url(#1de0c9f64a)"><path fill="#ffca28" d="M 581.132812 24.886719 C 581.996094 24.050781 582.890625 24.335938 583.117188 25.523438 L 587.824219 53.085938 L 572.230469 62.527344 C 571.6875 62.832031 570.234375 62.960938 570.234375 62.960938 C 570.234375 62.960938 568.917969 62.804688 568.414062 62.503906 L 552.933594 53.3125 Z M 581.132812 24.886719 " fill-opacity="1" fill-rule="nonzero"/></g><g clip-path="url(#6e07268c82)"><path fill="#ffa000" d="M 566.519531 27.230469 L 552.9375 53.3125 L 558.988281 15.195312 C 559.210938 14.007812 559.878906 13.894531 560.476562 14.941406 Z M 566.519531 27.230469 " fill-opacity="1" fill-rule="nonzero"/></g><g clip-path="url(#5e06698ce1)"><g clip-path="url(#1cedfdcda1)"><path fill="url(#7e9b5578b4)" d="M 705.855469 18.871094 L 705.855469 52 L 739.21875 52 L 739.21875 18.871094 Z M 705.855469 18.871094 " fill-rule="nonzero"/></g></g><g clip-path="url(#0d81e6845b)"><g clip-path="url(#6705a6792e)"><path fill="url(#c0d11f74f3)" d="M 716.292969 29.550781 L 716.292969 62.683594 L 749.65625 62.683594 L 749.65625 29.550781 Z M 716.292969 29.550781 " fill-rule="nonzero"/></g></g><g clip-path="url(#0b4b2f2564)"><path fill="#00618a" d="M 773.117188 55.738281 L 775.765625 55.738281 L 775.765625 45.332031 L 779.863281 54.40625 C 780.347656 55.5 781.007812 55.890625 782.308594 55.890625 C 783.605469 55.890625 784.242188 55.503906 784.726562 54.40625 L 788.824219 45.332031 L 788.824219 55.742188 L 791.472656 55.742188 L 791.472656 45.351562 C 791.472656 44.335938 791.066406 43.847656 790.226562 43.59375 C 788.214844 42.96875 786.863281 43.507812 786.253906 44.859375 L 782.230469 53.8125 L 778.335938 44.855469 C 777.75 43.503906 776.375 42.964844 774.363281 43.589844 C 773.523438 43.84375 773.117188 44.332031 773.117188 45.347656 Z M 793.675781 47.265625 L 796.320312 47.265625 L 796.320312 53 C 796.296875 53.3125 796.421875 54.042969 797.871094 54.066406 C 798.613281 54.078125 803.582031 54.066406 803.628906 54.066406 L 803.628906 47.238281 L 806.28125 47.238281 C 806.292969 47.238281 806.277344 56.546875 806.28125 56.585938 C 806.292969 58.882812 803.417969 59.382812 802.089844 59.421875 L 793.730469 59.421875 L 793.730469 57.648438 L 802.105469 57.644531 C 803.808594 57.464844 803.609375 56.625 803.609375 56.339844 L 803.609375 55.648438 L 797.980469 55.648438 C 795.363281 55.625 793.695312 54.488281 793.675781 53.179688 C 793.675781 53.0625 793.734375 47.324219 793.675781 47.265625 Z M 793.675781 47.265625 " fill-opacity="1" fill-rule="nonzero"/></g><path fill="#e48e00" d="M 808.324219 55.738281 L 815.933594 55.738281 C 816.824219 55.738281 817.691406 55.550781 818.378906 55.230469 C 819.527344 54.707031 820.085938 53.996094 820.085938 53.066406 L 820.085938 51.140625 C 820.085938 50.382812 819.449219 49.671875 818.203125 49.199219 C 817.539062 48.945312 816.726562 48.808594 815.9375 48.808594 L 812.726562 48.808594 C 811.660156 48.808594 811.148438 48.488281 811.023438 47.78125 C 810.996094 47.695312 810.996094 47.625 810.996094 47.542969 L 810.996094 46.34375 C 810.996094 46.277344 810.996094 46.207031 811.023438 46.125 C 811.148438 45.582031 811.429688 45.429688 812.371094 45.34375 C 812.449219 45.34375 812.550781 45.324219 812.625 45.324219 L 820.1875 45.324219 L 820.1875 43.570312 L 812.753906 43.570312 C 811.683594 43.570312 811.125 43.636719 810.617188 43.789062 C 809.035156 44.277344 808.347656 45.058594 808.347656 46.410156 L 808.347656 47.949219 C 808.347656 49.132812 809.695312 50.144531 811.960938 50.382812 C 812.21875 50.398438 812.472656 50.414062 812.726562 50.414062 L 815.476562 50.414062 C 815.578125 50.414062 815.679688 50.414062 815.753906 50.433594 C 816.59375 50.5 816.953125 50.652344 817.207031 50.957031 C 817.363281 51.113281 817.410156 51.261719 817.410156 51.425781 L 817.410156 52.960938 C 817.410156 53.148438 817.285156 53.382812 817.027344 53.585938 C 816.800781 53.789062 816.417969 53.925781 815.910156 53.957031 C 815.808594 53.957031 815.730469 53.976562 815.628906 53.976562 L 808.320312 53.976562 L 808.320312 55.730469 Z M 836.601562 52.679688 C 836.601562 54.488281 837.949219 55.5 840.675781 55.703125 C 840.929688 55.722656 841.183594 55.734375 841.4375 55.738281 L 848.339844 55.738281 L 848.339844 53.980469 L 841.386719 53.980469 C 839.835938 53.980469 839.25 53.589844 839.25 52.660156 L 839.25 43.574219 L 836.601562 43.574219 Z M 821.773438 52.769531 L 821.773438 46.507812 C 821.773438 44.917969 822.898438 43.949219 825.117188 43.644531 C 825.351562 43.613281 825.589844 43.597656 825.832031 43.59375 L 830.855469 43.59375 C 831.105469 43.597656 831.351562 43.613281 831.597656 43.644531 C 833.816406 43.949219 834.9375 44.914062 834.9375 46.507812 L 834.9375 52.769531 C 834.9375 54.0625 834.460938 54.753906 833.363281 55.203125 L 835.972656 57.546875 L 832.898438 57.546875 L 830.785156 55.648438 L 828.664062 55.785156 L 825.832031 55.785156 C 825.347656 55.785156 824.835938 55.714844 824.273438 55.5625 C 822.585938 55.105469 821.773438 54.226562 821.773438 52.769531 Z M 824.632812 52.613281 C 824.632812 52.699219 824.65625 52.785156 824.683594 52.886719 C 824.839844 53.613281 825.523438 54.019531 826.566406 54.019531 L 828.972656 54.019531 L 826.761719 52.035156 L 829.835938 52.035156 L 831.761719 53.765625 C 832.117188 53.578125 832.347656 53.289062 832.425781 52.917969 C 832.453125 52.835938 832.453125 52.75 832.453125 52.664062 L 832.453125 46.660156 C 832.453125 46.59375 832.453125 46.503906 832.425781 46.421875 C 832.269531 45.746094 831.585938 45.355469 830.566406 45.355469 L 826.574219 45.355469 C 825.398438 45.355469 824.636719 45.863281 824.636719 46.660156 L 824.636719 52.617188 Z M 824.632812 52.613281 " fill-opacity="1" fill-rule="nonzero"/><g clip-path="url(#5476b44df4)"><path fill="#00618a" d="M 850.667969 40.660156 C 849.039062 40.613281 847.796875 40.765625 846.734375 41.210938 C 846.429688 41.339844 845.949219 41.339844 845.898438 41.71875 C 846.066406 41.890625 846.089844 42.148438 846.222656 42.363281 C 846.476562 42.773438 846.90625 43.320312 847.289062 43.605469 C 847.707031 43.917969 848.136719 44.253906 848.582031 44.527344 C 849.378906 45.011719 850.269531 45.289062 851.035156 45.773438 C 851.488281 46.058594 851.9375 46.417969 852.378906 46.738281 C 852.597656 46.898438 852.742188 47.144531 853.027344 47.246094 L 853.027344 47.199219 C 852.875 47.011719 852.839844 46.75 852.703125 46.554688 L 852.101562 45.957031 C 851.511719 45.175781 850.765625 44.496094 849.972656 43.929688 C 849.339844 43.476562 847.921875 42.867188 847.65625 42.132812 L 847.613281 42.085938 C 848.058594 42.035156 848.585938 41.875 849 41.765625 C 849.695312 41.578125 850.320312 41.625 851.039062 41.441406 L 852.007812 41.164062 L 852.007812 40.980469 C 851.644531 40.609375 851.386719 40.117188 850.992188 39.78125 C 849.953125 38.90625 848.824219 38.027344 847.660156 37.296875 C 847.011719 36.890625 846.214844 36.625 845.53125 36.28125 C 845.300781 36.167969 844.894531 36.105469 844.742188 35.914062 C 844.382812 35.457031 844.1875 34.878906 843.910156 34.351562 C 843.332031 33.238281 842.757812 32.019531 842.246094 30.851562 C 841.894531 30.050781 841.664062 29.261719 841.226562 28.546875 C 839.125 25.109375 836.863281 23.03125 833.359375 20.992188 C 832.613281 20.558594 831.714844 20.386719 830.769531 20.164062 L 829.242188 20.070312 C 828.929688 19.941406 828.605469 19.5625 828.316406 19.378906 C 827.152344 18.648438 824.175781 17.0625 823.316406 19.144531 C 822.773438 20.464844 824.128906 21.75 824.613281 22.417969 C 824.953125 22.886719 825.386719 23.410156 825.628906 23.9375 C 825.789062 24.28125 825.816406 24.628906 825.953125 24.996094 C 826.289062 25.894531 826.582031 26.878906 827.019531 27.714844 C 827.238281 28.136719 827.480469 28.582031 827.757812 28.957031 C 827.929688 29.1875 828.222656 29.292969 828.269531 29.648438 C 827.984375 30.046875 827.964844 30.664062 827.804688 31.167969 C 827.082031 33.4375 827.355469 36.261719 828.40625 37.941406 C 828.730469 38.457031 829.488281 39.5625 830.535156 39.136719 C 831.449219 38.765625 831.242188 37.617188 831.507812 36.605469 C 831.566406 36.375 831.53125 36.207031 831.644531 36.050781 L 831.644531 36.097656 L 832.480469 37.757812 C 833.09375 38.746094 834.191406 39.777344 835.117188 40.472656 C 835.597656 40.835938 835.980469 41.460938 836.597656 41.671875 L 836.597656 41.625 L 836.550781 41.625 C 836.429688 41.4375 836.242188 41.363281 836.089844 41.210938 C 835.726562 40.859375 835.324219 40.417969 835.023438 40.015625 C 834.179688 38.875 833.4375 37.628906 832.757812 36.328125 C 832.433594 35.710938 832.152344 35.027344 831.878906 34.394531 C 831.773438 34.152344 831.773438 33.785156 831.554688 33.65625 C 831.253906 34.121094 830.8125 34.492188 830.582031 35.039062 C 830.210938 35.914062 830.164062 36.976562 830.027344 38.078125 C 829.945312 38.109375 829.980469 38.089844 829.933594 38.125 C 829.289062 37.972656 829.0625 37.3125 828.824219 36.742188 C 828.21875 35.3125 828.105469 33.003906 828.636719 31.355469 C 828.777344 30.929688 829.398438 29.582031 829.148438 29.191406 C 829.027344 28.796875 828.628906 28.566406 828.40625 28.269531 C 828.132812 27.898438 827.855469 27.40625 827.667969 26.976562 C 827.171875 25.863281 826.9375 24.609375 826.417969 23.476562 C 826.167969 22.9375 825.746094 22.390625 825.398438 21.914062 C 825.015625 21.382812 824.585938 20.992188 824.289062 20.351562 C 824.183594 20.125 824.039062 19.757812 824.195312 19.523438 C 824.230469 19.371094 824.320312 19.28125 824.472656 19.246094 C 824.742188 19.042969 825.492188 19.316406 825.769531 19.429688 C 826.511719 19.738281 827.132812 20.03125 827.761719 20.445312 C 828.0625 20.640625 828.367188 21.03125 828.730469 21.136719 L 829.148438 21.136719 C 829.800781 21.285156 830.527344 21.183594 831.136719 21.367188 C 832.214844 21.691406 833.175781 22.199219 834.054688 22.75 C 836.71875 24.425781 838.902344 26.8125 840.394531 29.660156 C 840.632812 30.121094 840.738281 30.558594 840.949219 31.042969 C 841.375 32.019531 841.910156 33.03125 842.335938 33.992188 C 842.761719 34.949219 843.171875 35.914062 843.769531 36.710938 C 844.085938 37.128906 845.300781 37.351562 845.855469 37.585938 C 846.242188 37.746094 846.875 37.917969 847.242188 38.136719 C 847.941406 38.558594 848.621094 39.058594 849.277344 39.519531 C 849.605469 39.75 850.617188 40.253906 850.667969 40.671875 Z M 850.667969 40.660156 " fill-opacity="1" fill-rule="nonzero"/></g><path fill="#00618a" d="M 829.980469 23.109375 C 829.640625 23.101562 829.402344 23.144531 829.148438 23.199219 L 829.148438 23.246094 L 829.195312 23.246094 C 829.355469 23.578125 829.640625 23.792969 829.84375 24.078125 L 830.304688 25.042969 L 830.351562 24.996094 C 830.636719 24.796875 830.769531 24.476562 830.769531 23.984375 C 830.652344 23.863281 830.636719 23.710938 830.535156 23.570312 C 830.402344 23.378906 830.144531 23.269531 829.980469 23.109375 Z M 829.980469 23.109375 " fill-opacity="1" fill-rule="evenodd"/><g clip-path="url(#e3b9f9a59b)"><path fill="#e48e00" d="M 849.582031 53.929688 C 849.582031 55.089844 850.503906 55.871094 851.535156 55.871094 C 852.5625 55.871094 853.484375 55.089844 853.484375 53.929688 C 853.484375 52.769531 852.5625 51.988281 851.535156 51.988281 C 850.503906 51.988281 849.582031 52.769531 849.582031 53.929688 Z M 853.046875 53.929688 C 853.046875 54.808594 852.371094 55.46875 851.535156 55.46875 C 850.6875 55.46875 850.019531 54.808594 850.019531 53.929688 C 850.019531 53.050781 850.683594 52.390625 851.535156 52.390625 C 852.371094 52.390625 853.046875 53.050781 853.046875 53.929688 Z M 852.058594 55.039062 L 852.496094 55.039062 L 851.855469 54.066406 C 852.199219 54.027344 852.460938 53.863281 852.460938 53.457031 C 852.460938 53.007812 852.171875 52.820312 851.621094 52.820312 L 850.753906 52.820312 L 850.753906 55.039062 L 851.128906 55.039062 L 851.128906 54.082031 L 851.476562 54.082031 Z M 851.128906 53.769531 L 851.128906 53.132812 L 851.558594 53.132812 C 851.78125 53.132812 852.054688 53.171875 852.054688 53.433594 C 852.054688 53.742188 851.808594 53.769531 851.527344 53.769531 Z M 851.128906 53.769531 " fill-opacity="1" fill-rule="evenodd"/></g><g clip-path="url(#d7e81fd15f)"><path fill="#83cd29" d="M 999.425781 32.363281 C 999.074219 32.363281 998.734375 32.4375 998.433594 32.609375 L 988.878906 38.152344 C 988.261719 38.511719 987.882812 39.1875 987.882812 39.90625 L 987.882812 50.976562 C 987.882812 51.695312 988.261719 52.371094 988.878906 52.730469 L 991.375 54.171875 C 992.585938 54.773438 993.03125 54.765625 993.585938 54.765625 C 995.378906 54.765625 996.402344 53.671875 996.402344 51.769531 L 996.402344 40.847656 C 996.402344 40.691406 996.269531 40.582031 996.121094 40.582031 L 994.921875 40.582031 C 994.769531 40.582031 994.640625 40.695312 994.640625 40.847656 L 994.640625 51.773438 C 994.640625 52.617188 993.765625 53.464844 992.347656 52.75 L 989.753906 51.222656 C 989.660156 51.171875 989.589844 51.082031 989.589844 50.976562 L 989.589844 39.910156 C 989.589844 39.804688 989.660156 39.695312 989.753906 39.644531 L 999.289062 34.117188 C 999.378906 34.066406 999.484375 34.066406 999.570312 34.117188 L 1009.105469 39.644531 C 1009.195312 39.699219 1009.269531 39.800781 1009.269531 39.910156 L 1009.269531 50.976562 C 1009.269531 51.082031 1009.214844 51.191406 1009.125 51.242188 L 999.570312 56.769531 C 999.488281 56.816406 999.375 56.816406 999.289062 56.769531 L 996.832031 55.300781 C 996.761719 55.257812 996.660156 55.261719 996.589844 55.300781 C 995.914062 55.6875 995.785156 55.730469 995.148438 55.953125 C 994.992188 56.007812 994.753906 56.09375 995.230469 56.359375 L 998.4375 58.257812 C 998.742188 58.4375 999.082031 58.523438 999.429688 58.523438 C 999.785156 58.523438 1000.117188 58.4375 1000.425781 58.257812 L 1009.976562 52.734375 C 1010.597656 52.371094 1010.972656 51.699219 1010.972656 50.980469 L 1010.972656 39.910156 C 1010.972656 39.191406 1010.597656 38.515625 1009.976562 38.15625 L 1000.425781 32.613281 C 1000.125 32.441406 999.78125 32.367188 999.429688 32.367188 Z M 1001.984375 40.273438 C 999.261719 40.273438 997.640625 41.4375 997.640625 43.371094 C 997.640625 45.46875 999.25 46.046875 1001.859375 46.308594 C 1004.984375 46.613281 1005.226562 47.074219 1005.226562 47.695312 C 1005.226562 48.765625 1004.378906 49.222656 1002.367188 49.222656 C 999.84375 49.222656 999.289062 48.589844 999.101562 47.324219 C 999.082031 47.1875 998.976562 47.078125 998.839844 47.078125 L 997.597656 47.078125 C 997.519531 47.082031 997.453125 47.109375 997.398438 47.164062 C 997.34375 47.21875 997.316406 47.285156 997.3125 47.363281 C 997.3125 48.980469 998.1875 50.890625 1002.367188 50.890625 C 1005.386719 50.890625 1007.132812 49.703125 1007.132812 47.609375 C 1007.132812 45.542969 1005.722656 44.980469 1002.792969 44.59375 C 999.832031 44.195312 999.546875 44.003906 999.546875 43.308594 C 999.546875 42.730469 999.785156 41.960938 1001.980469 41.960938 C 1003.941406 41.960938 1004.664062 42.386719 1004.960938 43.714844 C 1004.988281 43.839844 1005.097656 43.941406 1005.226562 43.941406 L 1006.464844 43.941406 C 1006.542969 43.941406 1006.617188 43.894531 1006.667969 43.839844 C 1006.722656 43.78125 1006.757812 43.714844 1006.75 43.636719 C 1006.558594 41.347656 1005.039062 40.273438 1001.984375 40.273438 Z M 1001.984375 40.273438 " fill-opacity="1" fill-rule="nonzero"/></g><g clip-path="url(#67bc2d3af6)"><path fill="#404137" d="M 943.257812 17.851562 C 943.148438 17.851562 943.046875 17.878906 942.953125 17.933594 C 942.753906 18.050781 942.652344 18.230469 942.648438 18.464844 L 942.648438 34.058594 C 942.648438 34.210938 942.578125 34.347656 942.445312 34.425781 C 942.304688 34.507812 942.164062 34.507812 942.019531 34.425781 L 939.484375 32.957031 C 939.078125 32.722656 938.671875 32.722656 938.269531 32.957031 L 928.148438 38.828125 C 927.769531 39.046875 927.539062 39.46875 927.539062 39.910156 L 927.539062 51.652344 C 927.535156 52.121094 927.738281 52.476562 928.144531 52.710938 L 938.269531 58.582031 C 938.675781 58.820312 939.078125 58.820312 939.484375 58.582031 L 949.609375 52.710938 C 950.015625 52.476562 950.21875 52.121094 950.214844 51.652344 L 950.214844 22.378906 C 950.214844 21.933594 949.972656 21.515625 949.585938 21.296875 L 943.5625 17.914062 C 943.46875 17.859375 943.363281 17.851562 943.257812 17.851562 Z M 878.144531 32.507812 C 877.949219 32.515625 877.769531 32.550781 877.597656 32.652344 L 867.472656 38.523438 C 867.066406 38.757812 866.863281 39.113281 866.867188 39.582031 L 866.886719 55.339844 C 866.886719 55.5625 867 55.765625 867.191406 55.871094 C 867.378906 55.984375 867.613281 55.984375 867.800781 55.871094 L 873.804688 52.40625 C 874.183594 52.179688 874.433594 51.785156 874.433594 51.347656 L 874.433594 43.984375 C 874.433594 43.546875 874.660156 43.144531 875.042969 42.925781 L 877.597656 41.4375 C 877.785156 41.328125 877.988281 41.273438 878.207031 41.273438 C 878.421875 41.273438 878.625 41.328125 878.8125 41.4375 L 881.371094 42.925781 C 881.746094 43.144531 881.976562 43.546875 881.976562 43.984375 L 881.976562 51.34375 C 881.976562 51.78125 882.230469 52.179688 882.605469 52.402344 L 888.609375 55.871094 C 888.800781 55.984375 889.03125 55.984375 889.21875 55.871094 C 889.40625 55.761719 889.523438 55.558594 889.523438 55.339844 L 889.542969 39.582031 C 889.546875 39.109375 889.34375 38.757812 888.933594 38.523438 L 878.8125 32.652344 C 878.640625 32.550781 878.460938 32.519531 878.265625 32.511719 L 878.144531 32.511719 Z M 969.097656 32.652344 C 968.882812 32.652344 968.679688 32.707031 968.492188 32.816406 L 958.367188 38.6875 C 957.992188 38.90625 957.761719 39.308594 957.761719 39.746094 L 957.761719 51.488281 C 957.761719 51.929688 958.007812 52.328125 958.386719 52.546875 L 968.429688 58.300781 C 968.800781 58.511719 969.253906 58.527344 969.625 58.320312 L 975.710938 54.914062 C 975.90625 54.808594 976.035156 54.605469 976.035156 54.386719 C 976.035156 54.164062 975.921875 53.964844 975.730469 53.855469 L 965.546875 47.984375 C 965.359375 47.875 965.222656 47.652344 965.222656 47.433594 L 965.222656 43.761719 C 965.222656 43.542969 965.359375 43.339844 965.546875 43.230469 L 968.710938 41.398438 C 968.902344 41.289062 969.132812 41.289062 969.320312 41.398438 L 972.492188 43.230469 C 972.695312 43.347656 972.796875 43.527344 972.796875 43.761719 L 972.796875 46.65625 C 972.796875 46.890625 972.898438 47.070312 973.101562 47.1875 C 973.292969 47.296875 973.519531 47.296875 973.710938 47.1875 L 979.773438 43.640625 C 980.152344 43.417969 980.382812 43.015625 980.382812 42.578125 L 980.382812 39.746094 C 980.382812 39.273438 980.179688 38.921875 979.773438 38.6875 L 969.714844 32.816406 C 969.527344 32.707031 969.324219 32.652344 969.105469 32.652344 Z M 938.835938 41.417969 C 938.890625 41.417969 938.945312 41.433594 938.996094 41.457031 L 942.464844 43.476562 C 942.558594 43.53125 942.628906 43.632812 942.628906 43.742188 L 942.628906 47.777344 C 942.628906 47.886719 942.558594 47.988281 942.464844 48.042969 L 938.996094 50.0625 C 938.902344 50.113281 938.789062 50.113281 938.691406 50.0625 L 935.222656 48.042969 C 935.128906 47.988281 935.0625 47.886719 935.0625 47.777344 L 935.0625 43.742188 C 935.0625 43.632812 935.128906 43.535156 935.222656 43.476562 L 938.691406 41.460938 C 938.738281 41.433594 938.78125 41.417969 938.835938 41.417969 Z M 938.835938 41.417969 " fill-opacity="1" fill-rule="nonzero"/></g><path fill="#83cd29" d="M 908.550781 32.589844 C 908.332031 32.589844 908.128906 32.644531 907.941406 32.753906 L 897.820312 38.605469 C 897.441406 38.824219 897.210938 39.246094 897.210938 39.683594 L 897.210938 51.425781 C 897.210938 51.898438 897.410156 52.25 897.820312 52.488281 L 907.941406 58.359375 C 908.347656 58.59375 908.753906 58.59375 909.15625 58.359375 L 919.28125 52.488281 C 919.6875 52.25 919.890625 51.898438 919.890625 51.425781 L 919.890625 39.6875 C 919.890625 39.246094 919.660156 38.824219 919.28125 38.605469 L 909.15625 32.753906 C 908.96875 32.644531 908.765625 32.589844 908.546875 32.589844 Z M 969.078125 43.070312 C 969.039062 43.070312 968.996094 43.070312 968.957031 43.089844 L 967.011719 44.230469 C 966.929688 44.273438 966.890625 44.34375 966.890625 44.433594 L 966.890625 46.675781 C 966.890625 46.761719 966.9375 46.839844 967.011719 46.882812 L 968.957031 48.003906 C 969.03125 48.046875 969.105469 48.046875 969.179688 48.003906 L 971.128906 46.882812 C 971.199219 46.839844 971.25 46.761719 971.25 46.675781 L 971.25 44.433594 C 971.25 44.351562 971.199219 44.273438 971.128906 44.230469 L 969.179688 43.089844 C 969.144531 43.066406 969.121094 43.070312 969.078125 43.070312 Z M 969.078125 43.070312 " fill-opacity="1" fill-rule="nonzero"/></svg>